<svg xmlns="http://www.w3.org/2000/svg" version="1.1" xmlns:xlink="http://www.w3.org/1999/xlink" xmlns:svgjs="http://svgjs.dev/svgjs" width="1000" height="1000" viewBox="0 0 1000 1000"><rect width="1000" height="1000" fill="#ffffff"></rect><g transform="matrix(0.7,0,0,0.7,149.57575757575756,405.3045409363237)"><svg viewBox="0 0 396 107" data-background-color="#ffffff" preserveAspectRatio="xMidYMid meet" height="270" width="1000" xmlns="http://www.w3.org/2000/svg" xmlns:xlink="http://www.w3.org/1999/xlink"><g id="tight-bounds" transform="matrix(1,0,0,1,0.2400000000000091,0.11065671858921178)"><svg viewBox="0 0 395.52 106.77868656282159" height="106.77868656282159" width="395.52"><g><svg viewBox="0 0 545.7245746624908 147.32947337053812" height="106.77868656282159" width="395.52"><g><rect width="8.85401422139295" height="147.32947337053812" x="118.17251274111632" y="0" fill="#0109aa" opacity="1" stroke-width="0" stroke="transparent" fill-opacity="1" class="rect-in-0" data-fill-palette-color="primary" rx="1%" id="in-0" data-palette-color="#0109aa"></rect></g><g transform="matrix(1,0,0,1,150.2045746624908,0.3664912272898846)"><svg viewBox="0 0 395.52 146.59649091595836" height="146.59649091595836" width="395.52"><g><svg viewBox="0 0 395.52 146.59649091595836" height="146.59649091595836" width="395.52"><g><svg viewBox="0 0 395.52 105.4801107351584" height="105.4801107351584" width="395.52"><g transform="matrix(1,0,0,1,0,0)"><svg width="395.52" viewBox="0.20000000000000062 -36.00000000000001 162.55 40.35000000000001" height="105.4801107351584" data-palette-color="#0109aa"><svg></svg><g class="undefined-text-0" data-fill-palette-color="primary" id="text-0"><path d="M11.65 4.35v0c-1.933 0-3.773-0.333-5.52-1-1.753-0.667-3.18-1.683-4.28-3.05-1.1-1.367-1.65-3.067-1.65-5.1v0c0-1.8 0.4-3.21 1.2-4.23 0.8-1.013 1.8-1.72 3-2.12 1.2-0.4 2.367-0.6 3.5-0.6v0c-1.067 1.133-1.873 2.3-2.42 3.5-0.553 1.2-0.83 2.35-0.83 3.45v0c0 1.133 0.293 2.19 0.88 3.17 0.58 0.987 1.453 1.79 2.62 2.41 1.167 0.613 2.617 0.92 4.35 0.92v0c1.5 0 2.96-0.25 4.38-0.75 1.413-0.5 2.58-1.25 3.5-2.25 0.913-1 1.37-2.25 1.37-3.75v0c0-1.367-0.39-2.543-1.17-3.53-0.787-0.98-1.797-1.863-3.03-2.65-1.233-0.78-2.533-1.53-3.9-2.25-1.367-0.713-2.667-1.487-3.9-2.32-1.233-0.833-2.24-1.8-3.02-2.9-0.787-1.1-1.18-2.417-1.18-3.95v0c0-1.367 0.343-2.827 1.03-4.38 0.68-1.547 1.653-3.003 2.92-4.37 1.267-1.367 2.8-2.477 4.6-3.33 1.8-0.847 3.8-1.27 6-1.27v0c2.3 0 3.917 0.483 4.85 1.45 0.933 0.967 1.4 2.233 1.4 3.8v0c0 1.233-0.217 2.55-0.65 3.95-0.433 1.4-0.957 2.733-1.57 4-0.62 1.267-1.213 2.35-1.78 3.25v0c-0.733-0.167-1.283-0.46-1.65-0.88-0.367-0.413-0.55-0.97-0.55-1.67v0c0-0.7 0.143-1.483 0.43-2.35 0.28-0.867 0.613-1.767 1-2.7 0.38-0.933 0.713-1.843 1-2.73 0.28-0.88 0.42-1.653 0.42-2.32v0c0-0.6-0.173-1.067-0.52-1.4-0.353-0.333-1.063-0.5-2.13-0.5v0c-1.6 0-3.067 0.35-4.4 1.05-1.333 0.7-2.49 1.583-3.47 2.65-0.987 1.067-1.747 2.19-2.28 3.37-0.533 1.187-0.8 2.263-0.8 3.23v0c0 1.2 0.383 2.223 1.15 3.07 0.767 0.853 1.76 1.63 2.98 2.33 1.213 0.7 2.497 1.4 3.85 2.1 1.347 0.7 2.63 1.483 3.85 2.35 1.213 0.867 2.203 1.9 2.97 3.1 0.767 1.2 1.15 2.667 1.15 4.4v0c0 1.733-0.39 3.267-1.17 4.6-0.787 1.333-1.847 2.46-3.18 3.38-1.333 0.913-2.81 1.613-4.43 2.1-1.613 0.48-3.253 0.72-4.92 0.72zM31.65 1.6v0c-1.5 0-2.523-0.49-3.07-1.47-0.553-0.987-0.83-2.063-0.83-3.23v0c0-1.067 0.167-2.16 0.5-3.28 0.333-1.113 0.793-2.153 1.38-3.12 0.58-0.967 1.23-1.743 1.95-2.33 0.713-0.58 1.437-0.87 2.17-0.87v0c0.233 0 0.51 0.04 0.83 0.12 0.313 0.087 0.537 0.213 0.67 0.38v0c-0.4 0.5-0.807 1.117-1.22 1.85-0.42 0.733-0.803 1.507-1.15 2.32-0.353 0.82-0.63 1.647-0.83 2.48-0.2 0.833-0.3 1.6-0.3 2.3v0c0 0.667 0.127 1.217 0.38 1.65 0.247 0.433 0.687 0.65 1.32 0.65v0c0.633 0 1.393-0.357 2.28-1.07 0.88-0.72 1.72-1.547 2.52-2.48v0c-1.067-0.967-1.833-2.027-2.3-3.18-0.467-1.147-0.7-2.537-0.7-4.17v0c0-0.7 0.177-1.5 0.53-2.4 0.347-0.9 0.913-1.683 1.7-2.35 0.78-0.667 1.837-1 3.17-1v0c1.433 0 2.443 0.4 3.03 1.2 0.58 0.8 0.87 1.75 0.87 2.85v0c0 1.233-0.323 2.617-0.97 4.15-0.653 1.533-1.43 2.983-2.33 4.35v0c0.4 0.2 0.867 0.3 1.4 0.3v0c0.5 0 1.1-0.117 1.8-0.35 0.7-0.233 1.383-0.627 2.05-1.18 0.667-0.547 1.2-1.287 1.6-2.22v0l0.9 0.65c-0.733 1.7-1.707 2.94-2.92 3.72-1.22 0.787-2.413 1.18-3.58 1.18v0c-0.433 0-0.867-0.043-1.3-0.13-0.433-0.08-0.833-0.187-1.2-0.32v0c-1.133 1.333-2.433 2.5-3.9 3.5-1.467 1-2.95 1.5-4.45 1.5zM39.55-6.1v0c0.8-1.167 1.483-2.417 2.05-3.75 0.567-1.333 0.85-2.567 0.85-3.7v0c0-0.767-0.117-1.327-0.35-1.68-0.233-0.347-0.583-0.52-1.05-0.52v0c-0.633 0-1.283 0.45-1.95 1.35-0.667 0.9-1 2.033-1 3.4v0c0 0.7 0.127 1.55 0.38 2.55 0.247 1 0.603 1.783 1.07 2.35zM73.1 1.55v0c-1.3 0-2.267-0.383-2.9-1.15-0.633-0.767-0.95-1.683-0.95-2.75v0c0-0.767 0.117-1.533 0.35-2.3 0.233-0.767 0.467-1.527 0.7-2.28 0.233-0.747 0.35-1.42 0.35-2.02v0c0-0.567-0.107-0.96-0.32-1.18-0.22-0.213-0.497-0.32-0.83-0.32v0c-0.767 0-1.657 0.583-2.67 1.75-1.02 1.167-2.28 2.867-3.78 5.1v0c-0.533 0.8-1.033 1.643-1.5 2.53-0.467 0.88-0.883 1.62-1.25 2.22v0c-0.3 0-0.69-0.05-1.17-0.15-0.487-0.1-0.913-0.24-1.28-0.42-0.367-0.187-0.55-0.43-0.55-0.73v0c0-0.3 0.167-0.883 0.5-1.75 0.333-0.867 0.717-1.877 1.15-3.03 0.433-1.147 0.817-2.28 1.15-3.4 0.333-1.113 0.5-2.053 0.5-2.82v0c0-0.467-0.083-0.833-0.25-1.1-0.167-0.267-0.433-0.4-0.8-0.4v0c-0.7 0-1.54 0.417-2.52 1.25-0.987 0.833-2.02 1.923-3.1 3.27-1.087 1.353-2.103 2.853-3.05 4.5-0.953 1.653-1.73 3.313-2.33 4.98v0c-0.367 0-0.817-0.073-1.35-0.22-0.533-0.153-1-0.337-1.4-0.55-0.4-0.22-0.6-0.413-0.6-0.58v0c0-0.033 0.117-0.51 0.35-1.43 0.233-0.913 0.517-2.053 0.85-3.42 0.333-1.367 0.683-2.767 1.05-4.2 0.367-1.433 0.683-2.683 0.95-3.75v0c0.1-0.367 0.467-0.693 1.1-0.98 0.633-0.28 1.183-0.42 1.65-0.42v0c0.467 0 0.867 0.15 1.2 0.45 0.333 0.3 0.5 0.7 0.5 1.2v0c0 0.333-0.067 0.817-0.2 1.45-0.133 0.633-0.3 1.35-0.5 2.15v0c0.7-0.933 1.443-1.86 2.23-2.78 0.78-0.913 1.597-1.737 2.45-2.47 0.847-0.733 1.697-1.317 2.55-1.75 0.847-0.433 1.687-0.65 2.52-0.65v0c1.233 0 2.067 0.44 2.5 1.32 0.433 0.887 0.65 1.847 0.65 2.88v0c0 0.433-0.033 0.857-0.1 1.27-0.067 0.42-0.157 0.837-0.27 1.25-0.12 0.42-0.28 0.913-0.48 1.48v0c0.633-0.933 1.327-1.793 2.08-2.58 0.747-0.78 1.553-1.403 2.42-1.87 0.867-0.467 1.783-0.7 2.75-0.7v0c1.3 0 2.2 0.39 2.7 1.17 0.5 0.787 0.75 1.647 0.75 2.58v0c0 0.867-0.14 1.773-0.42 2.72-0.287 0.953-0.57 1.853-0.85 2.7-0.287 0.853-0.43 1.58-0.43 2.18v0c0 0.333 0.083 0.64 0.25 0.92 0.167 0.287 0.5 0.43 1 0.43v0c0.9 0 1.767-0.417 2.6-1.25 0.833-0.833 1.61-1.86 2.33-3.08 0.713-1.213 1.32-2.37 1.82-3.47v0l0.85 1.05c-0.533 1.367-1.227 2.757-2.08 4.17-0.847 1.42-1.837 2.607-2.97 3.56-1.133 0.947-2.433 1.42-3.9 1.42zM83.95 1.5v0c-1.467 0-2.567-0.433-3.3-1.3-0.733-0.867-1.1-1.917-1.1-3.15v0c0-0.767 0.133-1.733 0.4-2.9 0.267-1.167 0.643-2.393 1.13-3.68 0.48-1.28 1.037-2.487 1.67-3.62 0.633-1.133 1.317-2.06 2.05-2.78 0.733-0.713 1.467-1.07 2.2-1.07v0c0.4 0 0.75 0.117 1.05 0.35 0.3 0.233 0.45 0.6 0.45 1.1v0c0 0.433-0.257 1.083-0.77 1.95-0.52 0.867-1.123 1.867-1.81 3-0.68 1.133-1.277 2.307-1.79 3.52-0.52 1.22-0.78 2.38-0.78 3.48v0c0 1.067 0.19 1.773 0.57 2.12 0.387 0.353 0.947 0.53 1.68 0.53v0c1.133 0 2.367-0.567 3.7-1.7 1.333-1.133 2.717-3.117 4.15-5.95v0l0.75 0.8c-1.167 2.933-2.65 5.217-4.45 6.85-1.8 1.633-3.733 2.45-5.8 2.45zM89.85-21.05v0c-0.633 0-1.207-0.16-1.72-0.48-0.52-0.313-0.78-0.803-0.78-1.47v0c0-0.8 0.433-1.483 1.3-2.05 0.867-0.567 1.767-0.85 2.7-0.85v0c0.6 0 1.11 0.133 1.53 0.4 0.413 0.267 0.62 0.75 0.62 1.45v0c0 0.7-0.383 1.373-1.15 2.02-0.767 0.653-1.6 0.98-2.5 0.98zM94.95 2.35v0c-1.1 0-2.057-0.367-2.87-1.1-0.82-0.733-1.23-1.833-1.23-3.3v0c0-1.167 0.267-2.433 0.8-3.8 0.533-1.367 1.267-2.717 2.2-4.05 0.933-1.333 2-2.543 3.2-3.63 1.2-1.08 2.483-1.953 3.85-2.62 1.367-0.667 2.733-1 4.1-1v0c1.433 0 2.65 0.367 3.65 1.1 1 0.733 1.5 1.7 1.5 2.9v0c0 0.9-0.317 1.55-0.95 1.95-0.633 0.4-1.383 0.517-2.25 0.35v0c0.067-0.3 0.127-0.6 0.18-0.9 0.047-0.3 0.07-0.617 0.07-0.95v0c0-0.667-0.133-1.267-0.4-1.8-0.267-0.533-0.833-0.8-1.7-0.8v0c-0.933 0-1.883 0.317-2.85 0.95-0.967 0.633-1.89 1.457-2.77 2.47-0.887 1.02-1.68 2.137-2.38 3.35-0.7 1.22-1.25 2.413-1.65 3.58-0.4 1.167-0.6 2.217-0.6 3.15v0c0 1.067 0.383 1.6 1.15 1.6v0c0.767 0 1.617-0.377 2.55-1.13 0.933-0.747 1.877-1.687 2.83-2.82 0.947-1.133 1.853-2.293 2.72-3.48 0.867-1.18 1.617-2.187 2.25-3.02v0c0.1-0.167 0.233-0.25 0.4-0.25v0c0.133 0.033 0.393 0.107 0.78 0.22 0.38 0.12 0.737 0.297 1.07 0.53 0.333 0.233 0.5 0.533 0.5 0.9v0c0 0.333-0.14 0.757-0.42 1.27-0.287 0.52-0.62 1.087-1 1.7-0.387 0.62-0.72 1.24-1 1.86-0.287 0.613-0.43 1.203-0.43 1.77v0c0 0.433 0.117 0.84 0.35 1.22 0.233 0.387 0.617 0.58 1.15 0.58v0c0.8 0 1.927-0.593 3.38-1.78 1.447-1.18 2.92-3.187 4.42-6.02v0l0.95 0.95c-0.8 1.8-1.757 3.39-2.87 4.77-1.12 1.387-2.297 2.473-3.53 3.26-1.233 0.78-2.483 1.17-3.75 1.17v0c-1.367 0-2.383-0.433-3.05-1.3-0.667-0.867-1.033-1.8-1.1-2.8v0c0-0.067 0-0.117 0-0.15 0-0.033 0-0.067 0-0.1v0c-1.333 1.6-2.557 2.867-3.67 3.8-1.12 0.933-2.313 1.4-3.58 1.4zM120 2.8v0c-1.733 0-3.157-0.54-4.27-1.62-1.12-1.087-1.68-2.747-1.68-4.98v0c0-1.633 0.317-3.233 0.95-4.8 0.633-1.567 1.483-2.977 2.55-4.23 1.067-1.247 2.26-2.237 3.58-2.97 1.313-0.733 2.653-1.1 4.02-1.1v0c1.4 0 2.41 0.35 3.03 1.05 0.613 0.7 0.92 1.517 0.92 2.45v0c0 0.933-0.223 1.84-0.67 2.72-0.453 0.887-1.063 1.33-1.83 1.33v0c-0.633 0-1.15-0.317-1.55-0.95v0c0.333-0.233 0.683-0.667 1.05-1.3 0.367-0.633 0.55-1.45 0.55-2.45v0c0-0.267-0.067-0.477-0.2-0.63-0.133-0.147-0.383-0.22-0.75-0.22v0c-0.833 0-1.707 0.373-2.62 1.12-0.92 0.753-1.77 1.72-2.55 2.9-0.787 1.187-1.42 2.437-1.9 3.75-0.487 1.32-0.73 2.53-0.73 3.63v0c0 0.933 0.243 1.79 0.73 2.57 0.48 0.787 1.42 1.18 2.82 1.18v0c1.267 0 2.583-0.367 3.95-1.1 1.367-0.733 2.65-1.76 3.85-3.08 1.2-1.313 2.167-2.887 2.9-4.72v0l1 0.9c-0.8 2.033-1.907 3.84-3.32 5.42-1.42 1.587-2.987 2.84-4.7 3.76-1.72 0.913-3.43 1.37-5.13 1.37zM135 1.5v0c-1.467 0-2.567-0.433-3.3-1.3-0.733-0.867-1.1-1.917-1.1-3.15v0c0-0.767 0.133-1.733 0.4-2.9 0.267-1.167 0.643-2.393 1.13-3.68 0.48-1.28 1.037-2.487 1.67-3.62 0.633-1.133 1.317-2.06 2.05-2.78 0.733-0.713 1.467-1.07 2.2-1.07v0c0.4 0 0.75 0.117 1.05 0.35 0.3 0.233 0.45 0.6 0.45 1.1v0c0 0.433-0.257 1.083-0.77 1.95-0.52 0.867-1.123 1.867-1.81 3-0.68 1.133-1.277 2.307-1.79 3.52-0.52 1.22-0.78 2.38-0.78 3.48v0c0 1.067 0.19 1.773 0.57 2.12 0.387 0.353 0.947 0.53 1.68 0.53v0c1.133 0 2.367-0.567 3.7-1.7 1.333-1.133 2.717-3.117 4.15-5.95v0l0.75 0.8c-1.167 2.933-2.65 5.217-4.45 6.85-1.8 1.633-3.733 2.45-5.8 2.45zM140.9-21.05v0c-0.633 0-1.207-0.16-1.72-0.48-0.52-0.313-0.78-0.803-0.78-1.47v0c0-0.8 0.433-1.483 1.3-2.05 0.867-0.567 1.767-0.85 2.7-0.85v0c0.6 0 1.11 0.133 1.53 0.4 0.413 0.267 0.62 0.75 0.62 1.45v0c0 0.7-0.383 1.373-1.15 2.02-0.767 0.653-1.6 0.98-2.5 0.98zM149.05 2.55v0c-1.667 0-3.01-0.34-4.03-1.02-1.013-0.687-1.737-1.553-2.17-2.6-0.433-1.053-0.65-2.13-0.65-3.23v0c0-0.967 0.133-1.717 0.4-2.25 0.267-0.533 0.6-0.927 1-1.18 0.4-0.247 0.773-0.437 1.12-0.57 0.353-0.133 0.613-0.283 0.78-0.45v0c0.833-0.867 1.69-1.877 2.57-3.03 0.887-1.147 1.647-2.42 2.28-3.82v0-0.5c0-1.333 0.223-2.277 0.67-2.83 0.453-0.547 0.98-0.82 1.58-0.82v0c0.4 0 0.69 0.1 0.87 0.3 0.187 0.2 0.297 0.433 0.33 0.7v0c0 0.2-0.043 0.433-0.13 0.7-0.08 0.267-0.12 0.633-0.12 1.1v0c0 1 0.24 2.14 0.72 3.42 0.487 1.287 0.97 2.647 1.45 4.08 0.487 1.433 0.73 2.9 0.73 4.4v0c0 0.4-0.017 0.767-0.05 1.1-0.033 0.333-0.083 0.65-0.15 0.95v0c1.033-0.267 2.05-0.843 3.05-1.73 1-0.88 1.95-2.187 2.85-3.92v0l0.6 0.45c-0.633 1.9-1.55 3.423-2.75 4.57-1.2 1.153-2.6 1.863-4.2 2.13v0c-0.533 1.367-1.41 2.383-2.63 3.05-1.213 0.667-2.587 1-4.12 1zM148.7 0.35v0c0.667 0 1.283-0.167 1.85-0.5 0.567-0.333 1.017-0.817 1.35-1.45v0c-1.367-0.3-2.6-0.833-3.7-1.6-1.1-0.767-1.95-1.55-2.55-2.35v0c-0.467 0.1-0.7 0.55-0.7 1.35v0c0 1.1 0.317 2.133 0.95 3.1 0.633 0.967 1.567 1.45 2.8 1.45zM152.3-3.1v0c0.067-0.233 0.107-0.51 0.12-0.83 0.02-0.313 0.03-0.553 0.03-0.72v0c-0.033-1.5-0.233-2.983-0.6-4.45-0.367-1.467-0.733-2.967-1.1-4.5v0c-0.6 1.033-1.3 2.15-2.1 3.35-0.8 1.2-1.55 2.167-2.25 2.9v0c0.533 0.9 1.317 1.75 2.35 2.55 1.033 0.8 2.217 1.367 3.55 1.7z" fill="#0109aa" fill-rule="nonzero" stroke="none" stroke-width="1" stroke-linecap="butt" stroke-linejoin="miter" stroke-miterlimit="10" stroke-dasharray="" stroke-dashoffset="0" font-family="none" font-weight="none" font-size="none" text-anchor="none" style="mix-blend-mode: normal" data-fill-palette-color="primary" opacity="1"></path></g></svg></g></svg></g><g transform="matrix(1,0,0,1,0,128.65815843513994)"><svg viewBox="0 0 187.87199999999996 17.93833248081841" height="17.93833248081841" width="187.87199999999996"><g transform="matrix(1,0,0,1,0,0)"><svg width="187.87199999999996" viewBox="1.75 -33 350.37 33.6" height="17.93833248081841" data-palette-color="#0a7441"><g class="undefined-text-1" data-fill-palette-color="secondary" id="text-1"><path d="M4.1-30.6L1.75-30.6 1.75-31.5 14.45-31.5Q20.8-31.5 24.8-27.3 28.8-23.1 28.8-15.75 28.8-8.4 24.8-4.2 20.8 0 14.45 0L14.45 0 1.75 0 1.75-0.9 4.1-0.9Q4.8-0.9 4.8-1.5L4.8-1.5 4.8-30Q4.8-30.6 4.1-30.6L4.1-30.6ZM14.45-30.1L14.45-30.1 8.9-30.1 8.9-1.4 14.45-1.4Q18.75-1.4 21.65-5.25 24.55-9.1 24.55-15.75 24.55-22.4 21.65-26.25 18.75-30.1 14.45-30.1ZM45.3-22.2Q47.25-22.2 48.47-20.55 49.7-18.9 49.7-16.4 49.7-13.9 47.65-13.9L47.65-13.9Q46.45-13.9 45.7-14.65L45.7-14.65Q46.35-16.1 46.35-17.6L46.35-17.6Q46.35-20.25 44.15-20.25L44.15-20.25Q42.3-20.25 40.87-17.18 39.45-14.1 39.45-8.25L39.45-8.25 39.45-1.6Q39.45-0.9 40.15-0.9L40.15-0.9 43.5-0.9 43.5 0 32.8 0 32.8-0.9 35.15-0.9Q35.85-0.9 35.85-1.6L35.85-1.6 35.85-20Q35.85-20.7 35.15-20.7L35.15-20.7 32.8-20.7 32.8-21.6 35.25-21.6Q38.25-21.6 39.45-21.9L39.45-21.9 39.45-15.5Q40.25-18.95 41.8-20.58 43.35-22.2 45.3-22.2ZM62.05-22.2L62.05-22.2Q65.5-22.2 67.5-19.9 69.5-17.6 69.5-13.15L69.5-13.15Q69.5-12.25 69.4-11.15L69.4-11.15 55.75-11.15 55.75-10.8Q55.75-6.05 57.47-3.33 59.2-0.6 61.92-0.6 64.65-0.6 66.4-2 68.15-3.4 68.8-6L68.8-6 69.75-5.8Q69.15-2.75 67-1.07 64.85 0.6 62.05 0.6L62.05 0.6Q57.7 0.6 54.82-2.45 51.95-5.5 51.95-10.78 51.95-16.05 54.85-19.13 57.75-22.2 62.05-22.2ZM66.05-14.85L66.05-14.85Q66.05-21 61.45-21L61.45-21Q59.15-21 57.52-18.5 55.9-16 55.8-12.15L55.8-12.15 65.85-12.15Q66.05-13.85 66.05-14.85ZM86.29-11.2L86.29-11.65 86.34-13.4 86.34-15.15Q86.34-21 82.54-21L82.54-21Q80.89-21 79.97-19.88 79.04-18.75 79.04-17.25 79.04-15.75 79.44-14.65L79.44-14.65Q78.59-13.9 77.09-13.9 75.59-13.9 75.59-16.35 75.59-18.8 77.52-20.5 79.44-22.2 82.99-22.2L82.99-22.2Q89.94-22.2 89.94-14L89.94-14 89.94-3.75Q89.94-1.05 91.44-1.05L91.44-1.05Q92.14-1.05 92.67-1.7 93.19-2.35 93.19-3.2 93.19-4.05 93.04-4.8L93.04-4.8 93.99-4.95Q94.19-4.2 94.19-3.3L94.19-3.3Q94.19-1.5 93.12-0.45 92.04 0.6 90.29 0.6 88.54 0.6 87.44-0.83 86.34-2.25 86.34-5.1L86.34-5.1 86.34-6Q85.49-2.6 83.64-1 81.79 0.6 79.37 0.6 76.94 0.6 75.47-0.93 73.99-2.45 73.99-4.98 73.99-7.5 76.34-9.47 78.69-11.45 83.09-11.45L83.09-11.45Q84.04-11.45 86.29-11.2L86.29-11.2ZM80.49-1.3L80.49-1.3Q82.59-1.3 84.27-3.68 85.94-6.05 86.24-10.35L86.24-10.35Q85.74-10.4 84.84-10.4L84.84-10.4Q80.84-10.4 79.12-8.72 77.39-7.05 77.39-4.85L77.39-4.85Q77.39-3.4 78.24-2.35 79.09-1.3 80.49-1.3ZM130.24-14.6L130.24-14.6 130.24-1.5Q130.24-0.9 130.94-0.9L130.94-0.9 133.29-0.9 133.29 0 124.29 0 124.29-0.9 125.94-0.9Q126.64-0.9 126.64-1.5L126.64-1.5 126.64-15.25Q126.64-17.8 125.59-19.03 124.54-20.25 122.74-20.25L122.74-20.25Q120.24-20.25 118.64-17.03 117.04-13.8 117.04-7.75L117.04-7.75 117.04-1.6Q117.04-0.9 117.74-0.9L117.74-0.9 120.09-0.9 120.09 0 111.09 0 111.09-0.9 112.74-0.9Q113.44-0.9 113.44-1.5L113.44-1.5 113.44-15.25Q113.44-17.8 112.39-19.03 111.34-20.25 109.54-20.25L109.54-20.25Q107.04-20.25 105.44-17.03 103.84-13.8 103.84-7.75L103.84-7.75 103.84-1.6Q103.84-0.9 104.54-0.9L104.54-0.9 106.19-0.9 106.19 0 97.19 0 97.19-0.9 99.54-0.9Q100.24-0.9 100.24-1.5L100.24-1.5 100.24-20Q100.24-20.7 99.54-20.7L99.54-20.7 97.19-20.7 97.19-21.6 99.64-21.6Q102.64-21.6 103.84-21.9L103.84-21.9 103.84-15.2Q105.49-22.2 110.94-22.2L110.94-22.2Q113.34-22.2 115.12-20.45 116.89-18.7 117.04-15.15L117.04-15.15Q118.69-22.2 124.14-22.2L124.14-22.2Q126.64-22.2 128.44-20.33 130.24-18.45 130.24-14.6ZM143.94-27.6L143.94-27.6 143.94-21.6 148.94-21.6 148.94-20.7 143.94-20.7 143.94-1.5Q143.94-0.9 144.74-0.9L144.74-0.9 147.99-0.9 147.99 0 137.29 0 137.29-0.9 139.64-0.9Q140.34-0.9 140.34-1.6L140.34-1.6 140.34-20Q140.34-20.7 139.64-20.7L139.64-20.7 137.29-20.7 137.29-21.6 140.39-21.6Q140.69-27.4 142.56-30.2 144.44-33 147.06-33 149.69-33 150.89-31.73 152.09-30.45 152.09-29L152.09-29Q152.09-26 150.34-26L150.34-26Q148.89-26 147.99-26.75L147.99-26.75Q148.74-28.25 148.74-29.4L148.74-29.4Q148.74-31.85 146.69-31.85L146.69-31.85Q143.94-31.85 143.94-27.6ZM171.34-21.9L171.34-21.9 171.34-1.6Q171.34-0.9 172.04-0.9L172.04-0.9 174.39-0.9 174.39 0 171.94 0Q168.94 0 167.74 0.3L167.74 0.3 167.74-6.45Q166.04 0.6 160.24 0.6L160.24 0.6Q157.64 0.6 155.84-1.28 154.04-3.15 154.04-7L154.04-7 154.04-20Q154.04-20.7 153.34-20.7L153.34-20.7 150.99-20.7 150.99-21.6 153.44-21.6Q156.44-21.6 157.64-21.9L157.64-21.9 157.64-6.35Q157.64-3.8 158.76-2.58 159.89-1.35 161.74-1.35L161.74-1.35Q164.39-1.35 166.06-4.58 167.74-7.8 167.74-13.85L167.74-13.85 167.74-20Q167.74-20.7 167.04-20.7L167.04-20.7 164.69-20.7 164.69-21.6 167.14-21.6Q170.14-21.6 171.34-21.9ZM180.43-1.6L180.43-1.6 180.43-30.8Q180.43-31.5 179.73-31.5L179.73-31.5 177.38-31.5 177.38-32.4 179.83-32.4Q182.83-32.4 184.03-32.7L184.03-32.7 184.03-1.6Q184.03-0.9 184.73-0.9L184.73-0.9 187.08-0.9 187.08 0 177.38 0 177.38-0.9 179.73-0.9Q180.43-0.9 180.43-1.6Z" fill="#0109aa" data-fill-palette-color="primary"></path><path d="M203.68-30.6L201.33-30.6 201.33-31.5 214.03-31.5Q220.38-31.5 224.38-27.3 228.38-23.1 228.38-15.75 228.38-8.4 224.38-4.2 220.38 0 214.03 0L214.03 0 201.33 0 201.33-0.9 203.68-0.9Q204.38-0.9 204.38-1.5L204.38-1.5 204.38-30Q204.38-30.6 203.68-30.6L203.68-30.6ZM214.03-30.1L214.03-30.1 208.48-30.1 208.48-1.4 214.03-1.4Q218.33-1.4 221.23-5.25 224.13-9.1 224.13-15.75 224.13-22.4 221.23-26.25 218.33-30.1 214.03-30.1ZM244.88-22.2Q246.83-22.2 248.05-20.55 249.28-18.9 249.28-16.4 249.28-13.9 247.23-13.9L247.23-13.9Q246.03-13.9 245.28-14.65L245.28-14.65Q245.92-16.1 245.92-17.6L245.92-17.6Q245.92-20.25 243.73-20.25L243.73-20.25Q241.88-20.25 240.45-17.18 239.03-14.1 239.03-8.25L239.03-8.25 239.03-1.6Q239.03-0.9 239.73-0.9L239.73-0.9 243.08-0.9 243.08 0 232.38 0 232.38-0.9 234.73-0.9Q235.42-0.9 235.42-1.6L235.42-1.6 235.42-20Q235.42-20.7 234.73-20.7L234.73-20.7 232.38-20.7 232.38-21.6 234.83-21.6Q237.83-21.6 239.03-21.9L239.03-21.9 239.03-15.5Q239.83-18.95 241.38-20.58 242.92-22.2 244.88-22.2ZM261.62-22.2L261.62-22.2Q265.07-22.2 267.07-19.9 269.07-17.6 269.07-13.15L269.07-13.15Q269.07-12.25 268.97-11.15L268.97-11.15 255.32-11.15 255.32-10.8Q255.32-6.05 257.05-3.33 258.77-0.6 261.5-0.6 264.22-0.6 265.97-2 267.72-3.4 268.37-6L268.37-6 269.32-5.8Q268.72-2.75 266.57-1.07 264.42 0.6 261.62 0.6L261.62 0.6Q257.27 0.6 254.4-2.45 251.52-5.5 251.52-10.78 251.52-16.05 254.42-19.13 257.32-22.2 261.62-22.2ZM265.62-14.85L265.62-14.85Q265.62-21 261.02-21L261.02-21Q258.72-21 257.1-18.5 255.47-16 255.37-12.15L255.37-12.15 265.42-12.15Q265.62-13.85 265.62-14.85ZM285.87-11.2L285.87-11.65 285.92-13.4 285.92-15.15Q285.92-21 282.12-21L282.12-21Q280.47-21 279.55-19.88 278.62-18.75 278.62-17.25 278.62-15.75 279.02-14.65L279.02-14.65Q278.17-13.9 276.67-13.9 275.17-13.9 275.17-16.35 275.17-18.8 277.1-20.5 279.02-22.2 282.57-22.2L282.57-22.2Q289.52-22.2 289.52-14L289.52-14 289.52-3.75Q289.52-1.05 291.02-1.05L291.02-1.05Q291.72-1.05 292.25-1.7 292.77-2.35 292.77-3.2 292.77-4.05 292.62-4.8L292.62-4.8 293.57-4.95Q293.77-4.2 293.77-3.3L293.77-3.3Q293.77-1.5 292.7-0.45 291.62 0.6 289.87 0.6 288.12 0.6 287.02-0.83 285.92-2.25 285.92-5.1L285.92-5.1 285.92-6Q285.07-2.6 283.22-1 281.37 0.6 278.95 0.6 276.52 0.6 275.05-0.93 273.57-2.45 273.57-4.98 273.57-7.5 275.92-9.47 278.27-11.45 282.67-11.45L282.67-11.45Q283.62-11.45 285.87-11.2L285.87-11.2ZM280.07-1.3L280.07-1.3Q282.17-1.3 283.85-3.68 285.52-6.05 285.82-10.35L285.82-10.35Q285.32-10.4 284.42-10.4L284.42-10.4Q280.42-10.4 278.7-8.72 276.97-7.05 276.97-4.85L276.97-4.85Q276.97-3.4 277.82-2.35 278.67-1.3 280.07-1.3ZM329.82-14.6L329.82-14.6 329.82-1.5Q329.82-0.9 330.52-0.9L330.52-0.9 332.87-0.9 332.87 0 323.87 0 323.87-0.9 325.52-0.9Q326.22-0.9 326.22-1.5L326.22-1.5 326.22-15.25Q326.22-17.8 325.17-19.03 324.12-20.25 322.32-20.25L322.32-20.25Q319.82-20.25 318.22-17.03 316.62-13.8 316.62-7.75L316.62-7.75 316.62-1.6Q316.62-0.9 317.32-0.9L317.32-0.9 319.67-0.9 319.67 0 310.67 0 310.67-0.9 312.32-0.9Q313.02-0.9 313.02-1.5L313.02-1.5 313.02-15.25Q313.02-17.8 311.97-19.03 310.92-20.25 309.12-20.25L309.12-20.25Q306.62-20.25 305.02-17.03 303.42-13.8 303.42-7.75L303.42-7.75 303.42-1.6Q303.42-0.9 304.12-0.9L304.12-0.9 305.77-0.9 305.77 0 296.77 0 296.77-0.9 299.12-0.9Q299.82-0.9 299.82-1.5L299.82-1.5 299.82-20Q299.82-20.7 299.12-20.7L299.12-20.7 296.77-20.7 296.77-21.6 299.22-21.6Q302.22-21.6 303.42-21.9L303.42-21.9 303.42-15.2Q305.07-22.2 310.52-22.2L310.52-22.2Q312.92-22.2 314.69-20.45 316.47-18.7 316.62-15.15L316.62-15.15Q318.27-22.2 323.72-22.2L323.72-22.2Q326.22-22.2 328.02-20.33 329.82-18.45 329.82-14.6ZM343.12-13.55L343.12-13.55 348.32-11.6Q350.17-10.9 351.14-9.47 352.12-8.05 352.12-6.3L352.12-6.3Q352.12-3.6 349.97-1.5 347.82 0.6 344.19 0.6 340.57 0.6 337.37-0.75L337.37-0.75Q337.67-1.95 337.67-4.95L337.67-4.95 337.67-6.95 338.57-6.95 338.92-4.35Q339.37-0.6 344.17-0.6L344.17-0.6Q346.32-0.6 347.74-1.93 349.17-3.25 349.17-4.95L349.17-4.95Q349.17-7.3 346.32-8.35L346.32-8.35 341.12-10.3Q339.37-10.95 338.47-12.35 337.57-13.75 337.57-15.5L337.57-15.5Q337.57-18.15 339.47-20.18 341.37-22.2 344.24-22.2 347.12-22.2 350.72-20.85L350.72-20.85Q350.42-19.65 350.42-16.65L350.42-16.65 350.42-14.65 349.52-14.65 349.17-17.25Q348.77-20.85 344.62-20.85L344.62-20.85Q342.77-20.85 341.57-19.7 340.37-18.55 340.37-17L340.37-17Q340.37-14.6 343.12-13.55Z" fill="#0a7441" data-fill-palette-color="secondary"></path></g></svg></g></svg></g></svg></g></svg></g><g transform="matrix(1,0,0,1,0,18.691052591784683)"><svg viewBox="0 0 94.99446504113477 109.94736818696876" height="109.94736818696876" width="94.99446504113477"><g><svg xmlns="http://www.w3.org/2000/svg" xmlns:xlink="http://www.w3.org/1999/xlink" version="1.1" x="0" y="0" viewBox="9.628000000000002 3.2001729778118615 80.87016049382716 93.59978296950106" enable-background="new 0 0 100 100" xml:space="preserve" height="109.94736818696876" width="94.99446504113477" class="icon-icon-0" data-fill-palette-color="accent" id="icon-0"><g display="none" fill="#45b5b5" data-fill-palette-color="accent"><g display="inline" fill="#45b5b5" data-fill-palette-color="accent"><path fill="#45b5b5" d="M90.359 44.743c-34.483 17.186-62.092 9.979-80.719 1.774C30.043 54.39 67.629 54.61 90.359 44.743z" data-fill-palette-color="accent"></path></g></g><g fill="#45b5b5" data-fill-palette-color="accent"><g fill="#45b5b5" data-fill-palette-color="accent"><path fill="#45b5b5" d="M84.731 58.649c-8.702-2.17-17.34-3.973-21.509-9.094-6.3-7.734-8.352-22.76-9.313-35.258C53.51 9.106 53.729 1.223 49.252 3.654c-2.099 2.727-2.102 10.321-2.439 13.97-1.363 14.694-4.052 29.18-13.305 35.479-3.732 2.542-7.938 3.595-13.971 5.103-3.516 0.877-9.254 2.324-9.909 5.074 22.656 5.828 64.796 2.24 80.792-1.249C89.978 60.154 87.71 59.392 84.731 58.649zM9.666 64.492c0.587 1.955 3.623 2.938 5.881 3.692 7.43 2.484 16.258 5.309 20.622 10.643 2.085 2.551 3.806 6.549 5.766 10.201 1.578 2.939 3.586 8.027 8.428 7.762 3.993-0.219 6.742-5.746 8.426-9.092 2.099-4.174 3.751-8.359 6.208-11.531 3.399-4.391 10.198-6.916 16.188-8.648 1.659-0.48 8.113-1.411 9.16-3.998C89.709 63.649 38.125 74.094 9.666 64.492zM90.495 62.768c-0.001 0.064-0.007 0.118-0.012 0.175 0.002-0.027 0.014-0.053 0.015-0.08C90.499 62.829 90.495 62.8 90.495 62.768z" data-fill-palette-color="accent"></path></g></g></svg></g></svg></g></svg></g><defs></defs></svg><rect width="395.52" height="106.77868656282159" fill="none" stroke="none" visibility="hidden"></rect></g></svg></g></svg>