<svg xmlns="http://www.w3.org/2000/svg" version="1.1" xmlns:xlink="http://www.w3.org/1999/xlink" xmlns:svgjs="http://svgjs.dev/svgjs" width="1000" height="181" viewBox="0 0 1000 181"><g transform="matrix(1,0,0,1,-0.6060606060606233,-0.14828651593757058)"><svg viewBox="0 0 396 72" data-background-color="#ffffff" preserveAspectRatio="xMidYMid meet" height="181" width="1000" xmlns="http://www.w3.org/2000/svg" xmlns:xlink="http://www.w3.org/1999/xlink"><g id="tight-bounds" transform="matrix(1,0,0,1,0.2400000000000091,0.05898690136743312)"><svg viewBox="0 0 395.52 71.88202619726515" height="71.88202619726515" width="395.52"><g><svg viewBox="0 0 517.7132122991065 94.08948899968314" height="71.88202619726515" width="395.52"><g><rect width="3.4487357946271198" height="81.69854327034714" x="109.71637233006292" y="6.195472864667998" fill="#0c5d01" opacity="1" stroke-width="0" stroke="transparent" fill-opacity="1" class="rect-rb-0" data-fill-palette-color="primary" rx="1%" id="rb-0" data-palette-color="#0c5d01"></rect></g><g transform="matrix(1,0,0,1,122.19321229910659,13.003684803863592)"><svg viewBox="0 0 395.52 68.08211939195596" height="68.08211939195596" width="395.52"><g><svg viewBox="0 0 395.52 68.08211939195596" height="68.08211939195596" width="395.52"><g><svg viewBox="0 0 395.52 38.242363367799115" height="38.242363367799115" width="395.52"><g transform="matrix(1,0,0,1,0,0)"><svg width="395.52" viewBox="3.49 -37.55 396.65999999999997 38.36" height="38.242363367799115" data-palette-color="#0c5d01"><path d="M3.49 0L3.49-4.2 7.01-4.2 7.01-32.35 3.49-32.35 3.49-37.01 15.21-37.01 26.95-5.05 38.84-37.01 49.95-37.01 49.95-32.35 46.46-32.35 46.46-4.2 49.95-4.2 49.95 0 37.94 0 37.94-4.2 41.89-4.2 41.89-32.62 28.96 0 24.8 0 11.69-32.69 11.69-4.2 15.5-4.2 15.5 0 3.49 0ZM56.93-32.79L56.93-37.01 68.75-37.01 68.75-32.79 65.23-32.79 65.23-4.2 68.75-4.2 68.75 0 56.93 0 56.93-4.2 60.45-4.2 60.45-32.79 56.93-32.79ZM75.73-32.79L75.73-37.01 91.13-37.01Q93.6-37.01 95.69-36.36 97.77-35.72 99.3-34.46 100.83-33.2 101.68-31.32 102.53-29.44 102.53-27L102.53-27Q102.53-25.61 102.03-24.26 101.53-22.9 100.64-21.74 99.75-20.58 98.53-19.68 97.31-18.77 95.87-18.29L95.87-18.29Q96.48-18.02 97.1-17.52 97.72-17.02 98.27-16.3 98.82-15.58 99.27-14.66 99.73-13.75 100-12.7L100-12.7 102.05-4.64 105.24-4.64 105.29 0 98.09 0 95.33-11.25Q94.58-14.28 93.02-15.71 91.47-17.14 88.79-17.14L88.79-17.14 84.03-17.14 84.03-4.2 87.74-4.2 87.74 0 75.73 0 75.73-4.2 79.24-4.2 79.24-32.79 75.73-32.79ZM90.55-32.79L84.03-32.79 84.03-21.14 91.13-21.14Q92.52-21.14 93.68-21.51 94.84-21.88 95.69-22.61 96.53-23.34 97-24.43 97.48-25.51 97.48-26.95L97.48-26.95Q97.48-29.71 95.82-31.25 94.16-32.79 90.55-32.79L90.55-32.79ZM111.32-32.79L111.32-37.01 137.83-37.01 137.83-26.54 132.83-26.54 132.83-32.79 119.62-32.79 119.62-20.95 130.73-20.95 130.73-16.75 119.62-16.75 119.62-4.2 132.83-4.2 132.83-10.45 137.83-10.45 137.83 0 111.32 0 111.32-4.2 114.84-4.2 114.84-32.79 111.32-32.79ZM168.72-32.81L168.72-37.01 180.73-37.01 180.73-32.81 177.21-32.81 177.21-4.2 180.73-4.2 180.73 0 168.72 0 168.72-4.2 172.43-4.2 172.43-17.5 151.02-17.5 151.02-4.2 154.73-4.2 154.73 0 142.71 0 142.71-4.2 146.23-4.2 146.23-32.81 142.71-32.81 142.71-37.01 154.73-37.01 154.73-32.81 151.02-32.81 151.02-21.61 172.43-21.61 172.43-32.81 168.72-32.81ZM195.28 0L195.28-4.2 198.67-4.2 198.67-33.01 190.22-33.01 190.22-27.25 185.22-27.25 185.22-37.01 218.22-37.01 218.22-27.25 213.22-27.25 213.22-33.01 203.45-33.01 203.45-4.2 207.26-4.2 207.26 0 195.28 0ZM222.71-32.79L222.71-37.01 234.53-37.01 234.53-32.79 231.02-32.79 231.02-4.2 234.53-4.2 234.53 0 222.71 0 222.71-4.2 226.23-4.2 226.23-32.79 222.71-32.79ZM260.48-26.95Q260.48-29.1 259.7-30.18 258.92-31.25 257.98-31.82 257.04-32.4 255.92-32.7 254.79-33.01 253.67-33.01L253.67-33.01Q251.81-33.01 250.42-32.58 249.03-32.15 248.11-31.42 247.2-30.69 246.74-29.71 246.27-28.74 246.27-27.66L246.27-27.66Q246.27-26.05 246.85-25.06 247.42-24.07 248.3-23.47 249.18-22.88 250.24-22.53 251.3-22.19 252.28-21.85L252.28-21.85 257.21-20.24Q259.43-19.53 261.13-18.63 262.82-17.72 263.97-16.49 265.12-15.26 265.72-13.65 266.32-12.04 266.32-9.91L266.32-9.91Q266.32-7.62 265.38-5.66 264.44-3.71 262.75-2.27 261.07-0.83 258.73-0.01 256.4 0.81 253.62 0.81L253.62 0.81Q250.76 0.81 248.74 0.16 246.71-0.49 245.33-1.57 243.95-2.66 243.12-4.05 242.29-5.44 241.83-6.91L241.83-6.91 239.97-6.91 239.97-11.11 246.13-11.11Q246.13-8.4 246.7-7.28 247.27-6.15 248.3-5.41 249.32-4.66 250.74-4.28 252.16-3.91 253.86-3.91L253.86-3.91Q255.52-3.91 256.86-4.3 258.19-4.69 259.13-5.43 260.07-6.18 260.57-7.24 261.07-8.3 261.07-9.64L261.07-9.64Q261.07-11.13 260.44-12.17 259.82-13.21 258.84-13.94 257.87-14.67 256.71-15.14 255.55-15.6 254.47-15.94L254.47-15.94 249.13-17.46Q247.37-17.99 245.92-18.82 244.46-19.65 243.43-20.85 242.39-22.05 241.83-23.65 241.27-25.24 241.27-27.34L241.27-27.34Q241.27-29.47 242.1-31.32 242.93-33.18 244.54-34.57 246.15-35.96 248.48-36.76 250.81-37.55 253.82-37.55L253.82-37.55Q255.79-37.55 257.47-37.08 259.14-36.62 260.49-35.78 261.85-34.94 262.89-33.75 263.92-32.57 264.63-31.15L264.63-31.15 266.46-31.15 266.46-26.95 260.48-26.95ZM297.05-32.81L297.05-37.01 309.06-37.01 309.06-32.81 305.55-32.81 305.55-4.2 309.06-4.2 309.06 0 297.05 0 297.05-4.2 300.76-4.2 300.76-17.5 279.35-17.5 279.35-4.2 283.06-4.2 283.06 0 271.05 0 271.05-4.2 274.56-4.2 274.56-32.81 271.05-32.81 271.05-37.01 283.06-37.01 283.06-32.81 279.35-32.81 279.35-21.61 300.76-21.61 300.76-32.81 297.05-32.81ZM337.94 0L337.94-4.2 341.02-4.2 338.09-12.6 323.85-12.6 321-4.2 324.81-4.2 324.81 0 312.79 0 312.79-4.2 316.02-4.2 327.54-37.01 334.74-37.01 346.24-4.2 349.95-4.2 349.95 0 337.94 0ZM330.91-33.2L325.25-16.65 336.67-16.65 330.91-33.2ZM353.69 0L353.69-4.2 357.2-4.2 357.2-32.35 353.69-32.35 353.69-37.01 365.4-37.01 377.15-5.05 389.04-37.01 400.15-37.01 400.15-32.35 396.65-32.35 396.65-4.2 400.15-4.2 400.15 0 388.13 0 388.13-4.2 392.09-4.2 392.09-32.62 379.15 0 375 0 361.89-32.69 361.89-4.2 365.7-4.2 365.7 0 353.69 0Z" opacity="1" transform="matrix(1,0,0,1,0,0)" fill="#0c5d01" class="undefined-text-0" data-fill-palette-color="primary" id="text-0"></path></svg></g></svg></g><g transform="matrix(1,0,0,1,0,47.270467542215655)"><svg viewBox="0 0 232.20979199999996 20.811651849740304" height="20.811651849740304" width="232.20979199999996"><g transform="matrix(1,0,0,1,0,0)"><svg width="232.20979199999996" viewBox="3.15 -36.5 413.91 37.1" height="20.811651849740304" data-palette-color="#b8a673"><path d="M22.3 0L13 0Q10.05 0 7.83-1.33 5.6-2.65 4.38-4.9 3.15-7.15 3.15-9.9L3.15-9.9 3.15-35 9.15-35 9.15-9.15Q9.15-7.55 10.23-6.4 11.3-5.25 13-5.25L13-5.25 22.3-5.25 22.3 0ZM32.75 0L27 0 27-25.5 32.75-25.5 32.75 0ZM29.85-29.05L29.85-29.05Q28.35-29.05 27.25-30.15 26.15-31.25 26.15-32.75L26.15-32.75Q26.15-34.25 27.25-35.35 28.35-36.45 29.85-36.45L29.85-36.45Q31.4-36.45 32.47-35.35 33.55-34.25 33.55-32.75L33.55-32.75Q33.55-31.25 32.47-30.15 31.4-29.05 29.85-29.05ZM50.59 0.6L50.59 0.6Q48.59 0.6 47.02-0.5 45.45-1.6 44.75-3.45L44.75-3.45 36.95-25.5 43.2-25.5 49.84-5.7Q50-5.35 50.2-5.2 50.4-5.05 50.65-5.05L50.65-5.05Q50.9-5.05 51.12-5.2 51.34-5.35 51.45-5.7L51.45-5.7 58.15-25.5 64.3-25.5 56.45-3.45Q55.8-1.6 54.2-0.5 52.59 0.6 50.59 0.6ZM74.24 0L68.49 0 68.49-25.5 74.24-25.5 74.24 0ZM71.34-29.05L71.34-29.05Q69.84-29.05 68.74-30.15 67.64-31.25 67.64-32.75L67.64-32.75Q67.64-34.25 68.74-35.35 69.84-36.45 71.34-36.45L71.34-36.45Q72.89-36.45 73.97-35.35 75.04-34.25 75.04-32.75L75.04-32.75Q75.04-31.25 73.97-30.15 72.89-29.05 71.34-29.05ZM86.89 0L81.14 0 81.14-14.7Q81.14-18 82.64-20.58 84.14-23.15 86.89-24.63 89.64-26.1 93.34-26.1L93.34-26.1Q97.04-26.1 99.77-24.63 102.49-23.15 103.99-20.58 105.49-18 105.49-14.7L105.49-14.7 105.49 0 99.79 0 99.79-14.65Q99.79-16.6 98.89-18.07 97.99-19.55 96.52-20.38 95.04-21.2 93.29-21.2L93.29-21.2Q91.59-21.2 90.12-20.38 88.64-19.55 87.77-18.07 86.89-16.6 86.89-14.65L86.89-14.65 86.89 0ZM115.94-19.75L110.19-19.75 110.19-35 115.94-35 115.94-19.75ZM141.63 0L135.88 0 135.88-36.5 141.63-36.5 141.63 0ZM158.88 0.6L158.88 0.6Q155.23 0.6 152.58-1.2 149.93-3 148.51-6.03 147.08-9.05 147.08-12.7L147.08-12.7Q147.08-16.5 148.71-19.53 150.33-22.55 153.36-24.33 156.38-26.1 160.58-26.1L160.58-26.1Q164.73-26.1 167.66-24.33 170.58-22.55 172.16-19.53 173.73-16.5 173.73-12.8L173.73-12.8 173.73 0 167.98 0 167.98-4.75 167.88-4.75Q167.13-3.35 165.93-2.13 164.73-0.9 162.98-0.15 161.23 0.6 158.88 0.6ZM160.43-4.3L160.43-4.3Q162.68-4.3 164.36-5.43 166.03-6.55 166.98-8.47 167.93-10.4 167.88-12.8L167.88-12.8Q167.88-15.2 166.98-17.07 166.08-18.95 164.43-20.08 162.78-21.2 160.48-21.2L160.48-21.2Q158.08-21.2 156.38-20.08 154.68-18.95 153.78-17.05 152.88-15.15 152.88-12.75L152.88-12.75Q152.88-10.4 153.78-8.47 154.68-6.55 156.36-5.43 158.03-4.3 160.43-4.3ZM206.48 0.6L206.48 0.6Q204.43 0.6 202.85-0.4 201.28-1.4 200.43-3.6L200.43-3.6 189.48-35 196.08-35 205.38-6.05Q205.58-5.55 205.83-5.28 206.08-5 206.48-5L206.48-5Q206.88-5 207.15-5.28 207.43-5.55 207.58-6.05L207.58-6.05 217.18-35 223.48-35 212.53-3.6Q211.78-1.5 210.15-0.45 208.53 0.6 206.48 0.6ZM232.72 0L226.97 0 226.97-25.5 232.72-25.5 232.72 0ZM229.82-29.05L229.82-29.05Q228.32-29.05 227.22-30.15 226.12-31.25 226.12-32.75L226.12-32.75Q226.12-34.25 227.22-35.35 228.32-36.45 229.82-36.45L229.82-36.45Q231.37-36.45 232.45-35.35 233.52-34.25 233.52-32.75L233.52-32.75Q233.52-31.25 232.45-30.15 231.37-29.05 229.82-29.05ZM251.47 0.6L251.47 0.6Q255.37 0.6 258.37-1.05 261.37-2.7 263.05-5.78 264.72-8.85 264.72-13.05L264.72-13.05 264.72-36.5 258.97-36.5 258.97-21.65 258.92-21.65Q258.12-23 256.82-24 255.52-25 253.92-25.55 252.32-26.1 250.52-26.1L250.52-26.1Q246.87-26.1 244.1-24.48 241.32-22.85 239.75-19.95 238.17-17.05 238.17-13.15L238.17-13.15Q238.17-10.1 239.1-7.58 240.02-5.05 241.75-3.2 243.47-1.35 245.92-0.38 248.37 0.6 251.47 0.6ZM251.47-4.3L251.47-4.3Q249.27-4.3 247.57-5.38 245.87-6.45 244.92-8.35 243.97-10.25 243.97-12.75L243.97-12.75Q243.97-15.2 244.92-17.1 245.87-19 247.55-20.1 249.22-21.2 251.42-21.2L251.42-21.2Q253.62-21.2 255.32-20.13 257.02-19.05 257.97-17.15 258.92-15.25 258.92-12.75L258.92-12.75Q258.92-10.25 257.97-8.35 257.02-6.45 255.32-5.38 253.62-4.3 251.47-4.3ZM281.77 0.6L281.77 0.6Q278.12 0.6 275.47-1.2 272.82-3 271.39-6.03 269.97-9.05 269.97-12.7L269.97-12.7Q269.97-16.5 271.59-19.53 273.22-22.55 276.24-24.33 279.27-26.1 283.47-26.1L283.47-26.1Q287.62-26.1 290.54-24.33 293.47-22.55 295.04-19.53 296.62-16.5 296.62-12.8L296.62-12.8 296.62 0 290.87 0 290.87-4.75 290.77-4.75Q290.02-3.35 288.82-2.13 287.62-0.9 285.87-0.15 284.12 0.6 281.77 0.6ZM283.32-4.3L283.32-4.3Q285.57-4.3 287.24-5.43 288.92-6.55 289.87-8.47 290.82-10.4 290.77-12.8L290.77-12.8Q290.77-15.2 289.87-17.07 288.97-18.95 287.32-20.08 285.67-21.2 283.37-21.2L283.37-21.2Q280.97-21.2 279.27-20.08 277.57-18.95 276.67-17.05 275.77-15.15 275.77-12.75L275.77-12.75Q275.77-10.4 276.67-8.47 277.57-6.55 279.24-5.43 280.92-4.3 283.32-4.3ZM335.61 0L326.31 0Q323.36 0 321.14-1.33 318.91-2.65 317.69-4.9 316.46-7.15 316.46-9.9L316.46-9.9 316.46-35 322.46-35 322.46-9.15Q322.46-7.55 323.54-6.4 324.61-5.25 326.31-5.25L326.31-5.25 335.61-5.25 335.61 0ZM352.46 0.6L352.46 0.6Q348.51 0.6 345.46-1.18 342.41-2.95 340.64-5.98 338.86-9 338.86-12.75L338.86-12.75Q338.86-16.5 340.64-19.53 342.41-22.55 345.46-24.33 348.51-26.1 352.46-26.1L352.46-26.1Q356.36-26.1 359.41-24.33 362.46-22.55 364.24-19.53 366.01-16.5 366.01-12.75L366.01-12.75Q366.01-9 364.24-5.98 362.46-2.95 359.41-1.18 356.36 0.6 352.46 0.6ZM352.46-4.3L352.46-4.3Q354.81-4.3 356.56-5.43 358.31-6.55 359.26-8.47 360.21-10.4 360.21-12.75L360.21-12.75Q360.21-15.1 359.26-17.03 358.31-18.95 356.56-20.08 354.81-21.2 352.46-21.2L352.46-21.2Q350.06-21.2 348.34-20.08 346.61-18.95 345.64-17.03 344.66-15.1 344.66-12.75L344.66-12.75Q344.66-10.4 345.64-8.47 346.61-6.55 348.34-5.43 350.06-4.3 352.46-4.3ZM386.86 0L383.76 0Q379.81 0 376.71-1.7 373.61-3.4 371.81-6.28 370.01-9.15 370.01-12.75L370.01-12.75Q370.01-16.35 371.81-19.23 373.61-22.1 376.71-23.8 379.81-25.5 383.76-25.5L383.76-25.5 386.86-25.5 386.86-20.6 383.66-20.6Q381.36-20.6 379.58-19.58 377.81-18.55 376.81-16.75 375.81-14.95 375.81-12.75L375.81-12.75Q375.81-10.55 376.81-8.75 377.81-6.95 379.58-5.93 381.36-4.9 383.66-4.9L383.66-4.9 386.86-4.9 386.86 0ZM402.21 0.6L402.21 0.6Q398.56 0.6 395.91-1.2 393.26-3 391.83-6.03 390.41-9.05 390.41-12.7L390.41-12.7Q390.41-16.5 392.03-19.53 393.66-22.55 396.68-24.33 399.71-26.1 403.91-26.1L403.91-26.1Q408.06-26.1 410.98-24.33 413.91-22.55 415.48-19.53 417.06-16.5 417.06-12.8L417.06-12.8 417.06 0 411.31 0 411.31-4.75 411.21-4.75Q410.46-3.35 409.26-2.13 408.06-0.9 406.31-0.15 404.56 0.6 402.21 0.6ZM403.76-4.3L403.76-4.3Q406.01-4.3 407.68-5.43 409.36-6.55 410.31-8.47 411.26-10.4 411.21-12.8L411.21-12.8Q411.21-15.2 410.31-17.07 409.41-18.95 407.76-20.08 406.11-21.2 403.81-21.2L403.81-21.2Q401.41-21.2 399.71-20.08 398.01-18.95 397.11-17.05 396.21-15.15 396.21-12.75L396.21-12.75Q396.21-10.4 397.11-8.47 398.01-6.55 399.68-5.43 401.36-4.3 403.76-4.3Z" opacity="1" transform="matrix(1,0,0,1,0,0)" fill="#b8a673" class="undefined-text-1" data-fill-palette-color="secondary" id="text-1"></path></svg></g></svg></g></svg></g></svg></g><g><svg viewBox="0 0 100.68826815564638 94.08948899968314" height="94.08948899968314" width="100.68826815564638"><g><svg xmlns="http://www.w3.org/2000/svg" xmlns:xlink="http://www.w3.org/1999/xlink" version="1.1" x="0" y="0" viewBox="5.900000000000002 12.599999999999998 88.5 82.70000000000002" enable-background="new 0 0 100 100" xml:space="preserve" height="94.08948899968314" width="100.68826815564638" class="icon-icon-0" data-fill-palette-color="accent" id="icon-0"><g fill="#89a7c6" data-fill-palette-color="accent"><circle fill="none" cx="14" cy="41.5" r="4.0"></circle><circle fill="none" cx="73.1" cy="20.9" r="4.0"></circle><circle fill="none" cx="85.8" cy="80.5" r="4.0"></circle><path fill="#89a7c6" d="M88.8 72.7V59.5c0-1.6-1.3-3-3-3H72.2v-10h7.5c1.1 2 3.2 3.4 5.6 3.4 3.5 0 6.4-2.9 6.4-6.4 0-3.5-2.9-6.4-6.4-6.4-2.6 0-4.8 1.5-5.8 3.7l-7.3-0.1v-0.3c0-3.6-2.9-6.5-6.5-6.5H55.1V23.9h10.2c1.2 3.1 4.2 5.3 7.7 5.3 4.6 0 8.3-3.7 8.3-8.3s-3.7-8.3-8.3-8.3c-3.5 0-6.5 2.2-7.7 5.3H52.1c-1.6 0-3 1.3-3 3v13.1H36.7c-2.8 0-5.2 1.9-6.1 4.4h-8.7c-1.2-3.1-4.2-5.3-7.7-5.3-4.6 0-8.3 3.7-8.3 8.3s3.7 8.3 8.3 8.3c3.6 0 6.7-2.4 7.8-5.6l8.3 0.1v17.2h-3.5c-1.1-2-3.2-3.4-5.6-3.4-3.5 0-6.4 2.9-6.4 6.4 0 3.5 2.9 6.4 6.4 6.4 2.6 0 4.8-1.5 5.8-3.7l3.3 0v2.3c0 3.6 2.9 6.5 6.5 6.5h2.7v13c0 1.6 1.3 3 3 3h7.5c1.1 2 3.2 3.4 5.6 3.4 3.5 0 6.4-2.9 6.4-6.4 0-3.5-2.9-6.4-6.4-6.4-2.4 0-4.5 1.4-5.6 3.4h-4.5v-10h20.4c3.6 0 6.5-2.9 6.5-6.5v-6.9h10.7v10.2c-3.1 1.2-5.3 4.2-5.3 7.7 0 4.6 3.7 8.3 8.3 8.3 4.6 0 8.3-3.7 8.3-8.3C94.1 76.9 91.9 73.9 88.8 72.7zM73.1 16.9c2.2 0 4 1.8 4 4 0 2.2-1.8 4-4 4-2.2 0-4-1.8-4-4C69.1 18.7 70.9 16.9 73.1 16.9zM14 45.5c-2.2 0-4-1.8-4-4s1.8-4 4-4c2.2 0 4 1.8 4 4S16.3 45.5 14 45.5zM85.8 84.5c-2.2 0-4-1.8-4-4 0-2.2 1.8-4 4-4 2.2 0 4 1.8 4 4C89.9 82.7 88.1 84.5 85.8 84.5z" data-fill-palette-color="accent"></path></g></svg></g></svg></g></svg></g><defs></defs></svg><rect width="395.52" height="71.88202619726515" fill="none" stroke="none" visibility="hidden"></rect></g></svg></g></svg>